<?xml version="1.0" encoding="UTF-8" standalone="no"?>
<!-- Created with Inkscape (http://www.inkscape.org/) -->

<svg
   xmlns:dc="http://purl.org/dc/elements/1.1/"
   xmlns:cc="http://creativecommons.org/ns#"
   xmlns:rdf="http://www.w3.org/1999/02/22-rdf-syntax-ns#"
   xmlns:svg="http://www.w3.org/2000/svg"
   xmlns="http://www.w3.org/2000/svg"
   xmlns:xlink="http://www.w3.org/1999/xlink"
   xmlns:sodipodi="http://sodipodi.sourceforge.net/DTD/sodipodi-0.dtd"
   xmlns:inkscape="http://www.inkscape.org/namespaces/inkscape"
   width="925.29987"
   height="927.32007"
   id="svg2"
   sodipodi:version="0.32"
   inkscape:version="0.47 r22583"
   version="1.0"
   sodipodi:docname="Book-icon.svg"
   inkscape:output_extension="org.inkscape.output.svg.inkscape">
  <defs
     id="defs4">
    <inkscape:perspective
       sodipodi:type="inkscape:persp3d"
       inkscape:vp_x="0 : 323 : 1"
       inkscape:vp_y="0 : 1000 : 0"
       inkscape:vp_z="819.64905 : 323 : 1"
       inkscape:persp3d-origin="409.82452 : 215.33333 : 1"
       id="perspective8" />
    <linearGradient
       gradientTransform="matrix(0.57853,0.353675,-0.35104,0.582872,520.705,-207.504)"
       gradientUnits="userSpaceOnUse"
       y2="451.37543"
       x2="114.65734"
       y1="524.23254"
       x1="173.22878"
       id="linearGradient3087"
       xlink:href="#linearGradient3525"
       inkscape:collect="always" />
    <linearGradient
       y2="150.75945"
       x2="131.42856"
       y1="62.271225"
       x1="52.857136"
       gradientUnits="userSpaceOnUse"
       id="linearGradient3021"
       xlink:href="#linearGradient2951"
       inkscape:collect="always" />
    <linearGradient
       y2="125.82186"
       x2="171.42857"
       y1="122.6041"
       x1="27.14286"
       gradientUnits="userSpaceOnUse"
       id="linearGradient3019"
       xlink:href="#linearGradient2959"
       inkscape:collect="always" />
    <linearGradient
       y2="150.75945"
       x2="131.42856"
       y1="62.271225"
       x1="52.857136"
       gradientUnits="userSpaceOnUse"
       id="linearGradient2973"
       xlink:href="#linearGradient2951"
       inkscape:collect="always" />
    <linearGradient
       y2="125.82186"
       x2="171.42857"
       y1="122.6041"
       x1="27.14286"
       gradientUnits="userSpaceOnUse"
       id="linearGradient2971"
       xlink:href="#linearGradient2959"
       inkscape:collect="always" />
    <linearGradient
       y2="125.82186"
       x2="171.42857"
       y1="122.6041"
       x1="27.14286"
       gradientUnits="userSpaceOnUse"
       id="linearGradient2965"
       xlink:href="#linearGradient2959"
       inkscape:collect="always" />
    <linearGradient
       y2="150.75945"
       x2="131.42856"
       y1="62.271225"
       x1="52.857136"
       gradientUnits="userSpaceOnUse"
       id="linearGradient2949"
       xlink:href="#linearGradient2951"
       inkscape:collect="always" />
    <linearGradient
       y2="125.82186"
       x2="171.42857"
       y1="122.6041"
       x1="27.14286"
       gradientUnits="userSpaceOnUse"
       id="linearGradient2947"
       xlink:href="#linearGradient2917"
       inkscape:collect="always" />
    <linearGradient
       gradientUnits="userSpaceOnUse"
       y2="150.75945"
       x2="131.42856"
       y1="62.271225"
       x1="52.857136"
       id="linearGradient2931"
       xlink:href="#linearGradient2925"
       inkscape:collect="always" />
    <linearGradient
       gradientUnits="userSpaceOnUse"
       y2="125.82186"
       x2="171.42857"
       y1="122.6041"
       x1="27.14286"
       id="linearGradient2923"
       xlink:href="#linearGradient2917"
       inkscape:collect="always" />
    <linearGradient
       id="linearGradient1977">
      <stop
         id="stop1979"
         offset="0"
         style="stop-color: rgb(239, 239, 189); stop-opacity: 1;" />
      <stop
         id="stop1981"
         offset="1"
         style="stop-color: rgb(210, 197, 149); stop-opacity: 1;" />
    </linearGradient>
    <linearGradient
       id="linearGradient2917">
      <stop
         id="stop2919"
         offset="0"
         style="stop-color: rgb(212, 0, 0); stop-opacity: 1;" />
      <stop
         id="stop2921"
         offset="1"
         style="stop-color: rgb(87, 0, 0); stop-opacity: 1;" />
    </linearGradient>
    <linearGradient
       id="linearGradient2925">
      <stop
         id="stop2927"
         offset="0"
         style="stop-color: rgb(250, 47, 82); stop-opacity: 1;" />
      <stop
         id="stop2929"
         offset="1"
         style="stop-color: rgb(245, 125, 90); stop-opacity: 1;" />
    </linearGradient>
    <linearGradient
       id="linearGradient2951">
      <stop
         style="stop-color: rgb(74, 175, 255); stop-opacity: 1;"
         offset="0"
         id="stop2953" />
      <stop
         style="stop-color: rgb(127, 229, 229); stop-opacity: 1;"
         offset="1"
         id="stop2955" />
    </linearGradient>
    <linearGradient
       id="linearGradient2959">
      <stop
         style="stop-color: rgb(85, 0, 175); stop-opacity: 1;"
         offset="0"
         id="stop2961" />
      <stop
         style="stop-color: rgb(0, 0, 82); stop-opacity: 1;"
         offset="1"
         id="stop2963" />
    </linearGradient>
    <linearGradient
       id="linearGradient3025">
      <stop
         id="stop3027"
         offset="0"
         style="stop-color: rgb(74, 175, 109); stop-opacity: 1;" />
      <stop
         id="stop3029"
         offset="1"
         style="stop-color: rgb(106, 242, 151); stop-opacity: 1;" />
    </linearGradient>
    <linearGradient
       id="linearGradient3033">
      <stop
         id="stop3035"
         offset="0"
         style="stop-color: rgb(85, 117, 103); stop-opacity: 1;" />
      <stop
         id="stop3037"
         offset="1"
         style="stop-color: rgb(0, 45, 23); stop-opacity: 1;" />
    </linearGradient>
    <linearGradient
       id="linearGradient3446">
      <stop
         id="stop3448"
         offset="0"
         style="stop-color: rgb(244, 227, 202); stop-opacity: 1;" />
      <stop
         id="stop3450"
         offset="1"
         style="stop-color: rgb(233, 204, 157); stop-opacity: 1;" />
    </linearGradient>
    <linearGradient
       id="linearGradient3525">
      <stop
         id="stop3527"
         offset="0"
         style="stop-color: rgb(0, 0, 102); stop-opacity: 1;" />
      <stop
         id="stop3529"
         offset="1"
         style="stop-color: rgb(0, 0, 79); stop-opacity: 1;" />
    </linearGradient>
    <inkscape:perspective
       id="perspective2613"
       inkscape:persp3d-origin="195.5 : 157.95238 : 1"
       inkscape:vp_z="391 : 236.92857 : 1"
       inkscape:vp_y="0 : 1000 : 0"
       inkscape:vp_x="0 : 236.92857 : 1"
       sodipodi:type="inkscape:persp3d" />
  </defs>
  <sodipodi:namedview
     id="base"
     pagecolor="#ffffff"
     bordercolor="#666666"
     borderopacity="1.0"
     inkscape:pageopacity="0.0"
     inkscape:pageshadow="2"
     inkscape:zoom="0.82425002"
     inkscape:cx="529.0781"
     inkscape:cy="362.93463"
     inkscape:document-units="px"
     inkscape:current-layer="layer1"
     showgrid="false"
     showguides="true"
     inkscape:guide-bbox="true"
     inkscape:window-width="1395"
     inkscape:window-height="835"
     inkscape:window-x="0"
     inkscape:window-y="22"
     inkscape:window-maximized="0">
    <sodipodi:guide
       orientation="0,1"
       position="366.39368,693.96419"
       id="guide3691" />
    <sodipodi:guide
       orientation="1,0"
       position="366.39368,693.96419"
       id="guide3693" />
  </sodipodi:namedview>
  <metadata
     id="metadata7">
    <rdf:RDF>
      <cc:Work
         rdf:about="">
        <dc:format>image/svg+xml</dc:format>
        <dc:type
           rdf:resource="http://purl.org/dc/dcmitype/StillImage" />
      </cc:Work>
    </rdf:RDF>
  </metadata>
  <g
     inkscape:label="Capa 1"
     inkscape:groupmode="layer"
     id="layer1"
     transform="translate(-972.98359,-178.07811)"
     style="display:inline">
    <text
       xml:space="preserve"
       style="font-size:40px;font-style:normal;font-weight:normal;fill:#000000;fill-opacity:1;stroke:none;font-family:Bitstream Vera Sans"
       x="52.527931"
       y="710.64978"
       id="text2381"
       transform="translate(1015.41,206.86)"><tspan
         sodipodi:role="line"
         id="tspan2383"
         x="52.527931"
         y="710.64978" /></text>
    <path
       id="path2883"
       d="m 1209.3732,1041.8582 c -0.4708,-1.2375 -0.9863,-0.6041 -4.2911,-8.0291 -3.3047,-7.425 -11.2921,-25.65 -17.7498,-40.49997 -6.4577,-14.85 -15.6678,-36 -20.467,-47 -47.2832,-108.37542 -62.6324,-143.59299 -98.282,-225.49999 -11.8495,-27.22501 -29.0555,-66.60001 -38.2354,-87.5 -9.18,-20.9 -16.9123,-38.9489 -17.1828,-40.10866 -0.6137,-2.63032 -0.7651,-2.57308 18.0097,-6.80668 148.8896,-33.57372 275.2124,-29.3557 357.6775,11.94314 13.0374,6.5292 21.9654,25.81303 27.0021,18.98802 3.3095,-4.48464 -12.2146,-44.82537 -26.3771,-84.28151 -5.5345,-15.41881 -20.3779,-45.65571 -31.4308,-71.21386 -11.8805,-27.47171 -23.9727,-50.93953 -21.4627,-49.20458 5.7038,3.94262 19.9285,14.99235 29.6949,34.16762 14.1683,27.81791 28.4457,64.88042 33.2081,77.35759 10.3694,27.16744 23.913,66.97219 31.404,76.86175 9.1991,12.14446 21.0856,-35.61865 30.0343,-49.84753 27.6269,-43.92849 60.369,-77.96916 92.4272,-102.46416 23.0557,-17.61639 51.2117,-31.60619 77,-38.2587 7.9347,-2.04691 27.9944,-4.63244 35.9404,-4.63244 8.5286,0 9.9514,1.35956 11.5123,11 2.4413,15.07908 8.0954,37.4678 16.6678,66 7.0882,23.59215 29.1051,81.82608 40.878,112.68016 12.5198,32.81122 16.0484,41.87662 25.8845,66.5 10.5803,26.48623 12.9914,32.38675 25.3349,62 3.0949,7.42499 6.8812,18.83161 9.8968,24.60661 16.684,31.95115 31.9249,68.26233 34.8767,81.53019 2.3797,10.69612 1.8173,12.29863 -4.7428,13.51498 -68.8122,12.75905 -121.7458,27.62304 -200.7486,56.37121 -21.3819,7.78059 -49.1544,18.74219 -50.7478,20.02972 -0.9582,0.77432 -0.5426,1.81133 1.7914,4.46961 6.0024,6.83631 0.8697,12.16401 -20.0587,20.82114 -46.6769,19.308 -72.9849,21.331 -72.9849,5.61231 0,-2.20985 -0.401,-4.26575 -0.8912,-4.56866 -2.2708,-1.40343 -56.3167,7.16026 -93.1824,20.94553 -49.1807,18.39023 -91.5706,36.43926 -151.862,64.66066 -14.2241,6.6581 -26.2728,12.1056 -26.7748,12.1056 -0.502,0 -1.2979,-1.0125 -1.7687,-2.25 z m 277.9953,-109.53699 34.0162,-0.0882 c 6.4293,-3.68255 7.5954,-1.20187 13.2023,-4.40388 0.331,0 8.0636,-4.8948 17.1835,-10.87733 60.2255,-39.50682 126.27,-67.53076 185.0818,-78.53363 20.8348,-3.89792 28.7836,-4.72669 52.1485,-5.43716 19.3212,-0.5875 21.8745,-0.86273 23.75,-2.56007 4.3423,-3.92969 9.1473,9.12624 -64.4573,-175.14142 -7.0718,-20.11068 -63.62,-142.92075 -76.0174,-164.20751 -0.4393,0.43931 4.1411,12.53762 20.3523,53.75713 6.5975,16.77499 19.0554,48.5 27.6842,70.5 8.6289,22 17.7274,45.175 20.2189,51.5 27.297,69.29471 51.3208,133.08744 51.3208,136.277 0,2.40027 -0.1852,2.44947 -13.75,3.65292 -49.281,4.37216 -108.791,20.79996 -149.967,41.39855 -28.3381,14.17632 -49.5361,28.22449 -70.2938,46.58437 -5.6648,5.0105 -10.488,8.92168 -10.7182,8.69152 -1.7305,-1.73048 11.2236,-17.99488 24.4182,-30.65816 27.551,-26.44152 62.8739,-45.8501 106.2283,-58.36843 15.4255,-4.45403 23.5583,-6.26342 45.0825,-10.02996 9.3533,-1.63675 27.2268,-3.557 43.344,-4.65671 12.5813,-0.85844 17.9879,-1.5925 18.3319,-2.48897 0.5703,-1.48627 -1.0537,-5.61854 -31.0084,-78.90213 -8.9957,-22.00767 -18.9933,-46.50538 -28.014,-68.64437 -4.1782,-10.2544 -9.7875,-23.7544 -12.4651,-30 -2.6776,-6.24559 -5.8257,-13.60563 -6.9958,-16.35563 -4.0155,-9.43753 -10.0337,-5.41927 -4.698,8.57355 11.0911,29.08611 26.8424,70.0904 38.6057,100.5 15.5669,40.24228 26.0137,68.56407 26.0137,70.52479 0,1.92494 1.2511,1.62316 -22.5,5.42693 -32.4723,5.20046 -69.7913,15.28503 -99,26.75242 -56.7935,22.29716 -89.0887,55.49046 -113.1287,95.08766 -2.5493,4.19905 -5.0191,7.63464 -5.4884,7.63464 -0.4693,0 -1.7461,-2.3625 -2.8374,-5.25 -1.0913,-2.8875 -5.3945,-13.92338 -12.8282,-32.64345 -13.278,-33.43783 -17.2668,-43.64359 -28.6846,-73.3912 -3.1435,-8.19004 -8.4108,-21.83123 -11.7054,-30.31376 -3.2945,-8.48254 -9.3453,-24.51691 -13.4463,-35.63196 -4.1009,-11.11503 -7.8973,-20.66387 -8.4365,-21.21962 -1.7202,-1.77331 -1.0884,5.28488 1.5896,17.75887 2.5976,12.09893 4.4585,17.98 14.2212,44.94273 2.9656,8.19004 8.0975,22.7885 11.4044,32.44104 6.8936,20.12175 12.7701,37.10254 24.9132,71.9898 7.9183,22.74909 7.6109,21.31755 6.3377,21.31755 -0.2615,0 -4.6532,-2.23224 -9.7593,-4.96052 -42.2747,-22.58793 -88.881,-41.89232 -157.2403,-32.23664 -24.9359,3.52216 -48.6369,7.56507 -69.2884,14.04639 -3.5141,1.10287 -13.0748,6.88438 -14.298,3.50356 -2.8177,-7.78777 -4.7569,-12.67532 -9.2924,-22.65908 -50.3865,-110.90994 -99.9682,-207.31213 -117.5913,-239.22478 -11.4248,-20.68855 -5.3813,-5.77474 16.0279,39.55223 33.8902,71.75151 43.06,91.5502 63.1364,136.32031 15.2325,33.96818 31.6915,73.30216 37.7088,90.11724 1.6025,4.47798 3.5676,8.39275 4.367,8.69951 0.7993,0.30675 5.5066,-0.65685 10.4606,-2.14134 20.6339,-6.18307 54.3067,-13.51849 74.3801,-16.20328 43.824,-5.86138 63.1117,-3.97134 98.7894,2.19777 22.7708,3.93734 53.8298,18.56701 51.8054,20.59144 -0.2504,0.25043 -8.3344,-0.30472 -17.8429,-1.99559 -24.5972,-4.37408 -26.3018,-8.3435 -59.6643,-11.25885 -23.4092,-2.04559 -38.3006,-1.60641 -52.9682,0.21077 -44.8393,5.55514 -70.7707,12.74552 -99.5677,29.72484 -6.3995,3.77333 -14.1473,6.13797 -15.0835,2.98507 -1.1912,-4.01173 -32.2889,-73.82832 -48.3394,-111.43711 -20.0191,-46.90739 -38.3851,-81.43511 -51.3601,-109.11911 -2.9212,-6.23284 -7.6881,-16.43202 -10.5932,-22.66485 -14.7558,-31.65851 -40.1117,-78.95454 -41.5547,-77.51148 -0.6082,0.60827 3.3285,9.68267 22.0068,50.72574 53.8669,118.36545 103.9602,232.21061 118.0873,268.37244 3.2098,8.21601 6.5293,16.48275 7.377,18.37056 l 1.5411,3.43235 4.3693,-2.56054 c 10.2744,-6.02119 32.0717,-16.2095 44.0042,-20.56805 28.8134,-10.52463 54.207,-16.43056 88.0839,-20.4862 17.3895,-2.08182 55.3927,4.31517 74.2739,6.56235 16.5446,1.9691 41.603,6.32116 42.7003,7.41605 0.3852,0.38435 -15.5898,0.6988 -35.5,0.6988 -38.3531,0 -51.2628,0.83604 -79.2003,5.12906 -35.1914,5.40767 -64.3373,13.27841 -98,26.4645 -15.2929,5.99039 -41.5846,18.40964 -49.3464,23.30946 -2.3657,1.49337 -4.9704,2.57612 -5.7884,2.4061 -0.9241,-0.19207 -6.3359,-12.42651 -14.2918,-32.30912 -7.0425,-17.6 -15.8381,-39.2 -19.5458,-48 -3.7077,-8.79999 -9.1131,-21.625 -12.012,-28.5 -27.2066,-64.52221 -62.2216,-138.86866 -89.0097,-188.99183 -9.6775,-18.10754 -20.5025,-36.20684 -20.5046,-34.28346 0,1.05864 8.5163,28.4216 29.0767,71.49106 26.8685,56.28386 66.9728,144.15068 84.1468,184.36222 17.5037,40.98341 33.3167,83.38213 33.359,89.44389 0.035,5.05861 4.7502,3.333 13.5181,-1.79316 41.6877,-24.37309 90.0103,-43.5584 133.8251,-52.21377 21.2084,-4.1896 33.1945,-6.02623 49.9231,-7.02834 16.0878,0.72438 50.6906,-1.64612 75.6661,6.50547 z m 68.4114,-27.35691 c 1.7998,-3.36294 19.0315,-18.68356 30.7937,-27.37848 41.8624,-30.94593 95.397,-51.59164 153.3773,-59.15025 10.6548,-1.38901 37.1879,-3.33678 52.8763,-3.88158 l 9.4366,-1.37842 c 2.1619,3.36501 3.3294,4.76345 1.5885,5.6654 -0.825,0.42742 -8.25,1.75674 -16.5,2.95401 -73.3427,10.64391 -154.1292,38.6039 -212.5,73.54569 -7.975,4.77398 -15.768,9.33917 -17.3177,10.14487 -2.6984,1.40293 -2.7727,1.38088 -1.7547,-0.52124 z m -63.4915,-338.798 c 1.8607,-2.63184 4.4479,-6.45126 5.7495,-8.48755 14.5051,-22.69139 43.3216,-55.10643 64.256,-72.27991 8.8372,-7.24951 25.7357,-18.45906 34.095,-22.61676 4.2846,-2.13099 5.8591,-6.00603 5.6238,-6.41356 -0.9037,-1.5652 -12.6427,3.35562 -25.0243,10.48992 -20.6754,11.91317 -38.0516,26.49375 -56.9082,47.75247 -11.0365,12.44244 -26.9817,33.38107 -32.2883,42.3998 -5.9403,10.09557 -1.8584,18.14499 4.4965,9.15559 z m -106.7941,59.89731 c 0,-1.78013 -4.734,-7.96577 -8.1683,-10.67283 -12.4435,-9.80883 -46.021,-21.09577 -76.5687,-25.73825 -39.4814,-6.00018 -94.5359,-6.58468 -142.013,-1.50773 -6.4729,0.69219 -6.0722,6.51582 -6.0722,6.93344 0,0.4176 7.6022,-4.3433 23.8566,-4.65743 54.7977,-1.05901 107.8962,3.28212 145.1513,11.86705 21.6651,4.99243 46.2228,14.33646 56.8989,21.6496 3.8535,2.63971 6.9154,3.58107 6.9154,2.12615 z"
       style="fill:#0033bf;fill-opacity:1;fill-rule:nonzero"
       sodipodi:nodetypes="cssssssssssssssssssssssssssssssssssssccccssssccssssssssssssssssssssssssssssssssssssssscsssssssssssssssssssscccssssssssssssssssssscccssccssssccsssssssccsssssssc" />
    <path
       sodipodi:type="arc"
       style="fill:#0033bf;fill-opacity:1;stroke:none"
       id="path3657"
       sodipodi:cx="370.94327"
       sodipodi:cy="243.66829"
       sodipodi:rx="14.255383"
       sodipodi:ry="12.738853"
       d="m 385.19865,243.66829 a 14.255383,12.738853 0 1 1 -28.51076,0 14.255383,12.738853 0 1 1 28.51076,0 z"
       transform="matrix(2.1434068,0,0,2.2795265,544.55515,-143.13859)" />
    <path
       sodipodi:type="arc"
       style="fill:none;stroke:#0033bf;stroke-width:15;stroke-linecap:round;stroke-miterlimit:4;stroke-opacity:1;stroke-dasharray:none;stroke-dashoffset:0"
       id="path3695"
       sodipodi:cx="366.39368"
       sodipodi:cy="233.35588"
       sodipodi:rx="78.126907"
       sodipodi:ry="78.126907"
       d="M 288.26761,233.71814 A 78.126907,78.126907 0 0 1 425.33297,182.07262"
       transform="translate(972.98359,178.07811)"
       sodipodi:start="3.1369558"
       sodipodi:end="5.5671355"
       sodipodi:open="true" />
    <path
       sodipodi:type="arc"
       style="fill:none;stroke:#0033bf;stroke-width:15;stroke-linecap:round;stroke-miterlimit:4;stroke-opacity:1;stroke-dasharray:none;stroke-dashoffset:0"
       id="path3697"
       sodipodi:cx="366.39368"
       sodipodi:cy="233.35588"
       sodipodi:rx="119.3051"
       sodipodi:ry="119.3051"
       d="M 247.08986,233.90908 A 119.3051,119.3051 0 0 1 456.39799,155.04285"
       transform="translate(972.98359,178.07811)"
       sodipodi:start="3.1369558"
       sodipodi:end="5.5671355"
       sodipodi:open="true" />
    <path
       sodipodi:type="arc"
       style="fill:none;stroke:#0033bf;stroke-width:15;stroke-linecap:round;stroke-miterlimit:4;stroke-opacity:1;stroke-dasharray:none;stroke-dashoffset:0"
       id="path3699"
       sodipodi:cx="366.39368"
       sodipodi:cy="233.35588"
       sodipodi:rx="160.48329"
       sodipodi:ry="160.48329"
       d="M 205.91211,234.10002 A 160.48329,160.48329 0 0 1 487.463,128.01308"
       transform="translate(972.98359,178.07811)"
       sodipodi:start="3.1369558"
       sodipodi:end="5.5671355"
       sodipodi:open="true" />
    <path
       style="fill:#ffffff;fill-opacity:1;fill-rule:nonzero;stroke:none"
       d="m 487.1526,454.51801 c 0.90564,3.36366 0.55083,10.57733 1.50966,13.9308 15.97143,55.85975 39.37246,111.82125 72.35927,217.05286 1.13085,3.60754 3.48476,3.63759 4.63528,7.37177 2.48831,-3.64927 5.0309,-1.769 7.6308,-5.27307 42.42622,-57.18078 119.01341,-86.21864 172.20385,-92.73997 22.30464,-2.73463 8.87158,2.83169 24.57576,-4.16692 1.05166,-11.37445 0.2688,-11.23432 -1.13398,-14.74399 -34.36283,-85.97386 -74.02359,-178.38445 -104.30661,-262.61207 -1.37335,-3.81975 -2.71617,-3.38512 -9.48561,-7.1881 -5.93578,1.33839 -10.6415,-0.27808 -14.12572,1.22804 -45.719,19.76288 -86.37447,57.97401 -148.61624,134.17075 -2.43301,2.97851 -2.75158,9.87506 -5.24646,12.9699 z"
       id="path3634"
       transform="translate(972.98359,178.07811)"
       sodipodi:nodetypes="csscsscsscssc" />
    <path
       style="fill:#ffffff;fill-opacity:1;fill-rule:nonzero;stroke:none"
       d="m 175.9175,433.53785 c 0,0 -2.33168,6.3455 1.06847,13.41509 16.47736,34.25971 67.50384,138.45487 105.24446,233.04926 1.59857,4.00673 7.41197,9.8128 8.94336,13.77223 3.98216,-1.04295 13.48667,-1.59862 17.65537,-2.81501 22.50253,-6.56606 43.15018,-15.3155 82.43561,-14.77674 53.41353,0.73251 73.40006,9.70579 114.04307,23.05126 -26.61799,-87.21641 -50.21577,-162.23588 -78.67496,-221.20976 -2.0237,-4.19356 -8.90033,-8.30598 -10.92346,-12.33589 -5.57849,-1.47834 -10.76121,-6.54342 -15.59843,-7.91759 -53.47163,-15.19036 -67.05567,-20.66164 -101.65786,-25.44607 -34.68033,-4.79523 -81.70897,-4.52172 -104.98505,-3.10062 -6.43036,0.3926 -17.55058,4.31384 -17.55058,4.31384 z"
       id="path3636"
       transform="translate(972.98359,178.07811)"
       sodipodi:nodetypes="csscsscscsasc" />
  </g>
</svg>
