<?xml version="1.0" encoding="UTF-8" standalone="no"?>
<!-- Created with Inkscape (http://www.inkscape.org/) -->

<svg
   xmlns:dc="http://purl.org/dc/elements/1.1/"
   xmlns:cc="http://creativecommons.org/ns#"
   xmlns:rdf="http://www.w3.org/1999/02/22-rdf-syntax-ns#"
   xmlns:svg="http://www.w3.org/2000/svg"
   xmlns="http://www.w3.org/2000/svg"
   xmlns:xlink="http://www.w3.org/1999/xlink"
   xmlns:sodipodi="http://sodipodi.sourceforge.net/DTD/sodipodi-0.dtd"
   xmlns:inkscape="http://www.inkscape.org/namespaces/inkscape"
   width="925.29987"
   height="927.32007"
   id="svg2"
   sodipodi:version="0.32"
   inkscape:version="0.47 r22583"
   version="1.0"
   sodipodi:docname="Book-icon.svg"
   inkscape:output_extension="org.inkscape.output.svg.inkscape">
  <defs
     id="defs4">
    <inkscape:perspective
       sodipodi:type="inkscape:persp3d"
       inkscape:vp_x="0 : 323 : 1"
       inkscape:vp_y="0 : 1000 : 0"
       inkscape:vp_z="819.64905 : 323 : 1"
       inkscape:persp3d-origin="409.82452 : 215.33333 : 1"
       id="perspective8" />
    <linearGradient
       gradientTransform="matrix(0.57853,0.353675,-0.35104,0.582872,520.705,-207.504)"
       gradientUnits="userSpaceOnUse"
       y2="451.37543"
       x2="114.65734"
       y1="524.23254"
       x1="173.22878"
       id="linearGradient3087"
       xlink:href="#linearGradient3525"
       inkscape:collect="always" />
    <linearGradient
       y2="150.75945"
       x2="131.42856"
       y1="62.271225"
       x1="52.857136"
       gradientUnits="userSpaceOnUse"
       id="linearGradient3021"
       xlink:href="#linearGradient2951"
       inkscape:collect="always" />
    <linearGradient
       y2="125.82186"
       x2="171.42857"
       y1="122.6041"
       x1="27.14286"
       gradientUnits="userSpaceOnUse"
       id="linearGradient3019"
       xlink:href="#linearGradient2959"
       inkscape:collect="always" />
    <linearGradient
       y2="150.75945"
       x2="131.42856"
       y1="62.271225"
       x1="52.857136"
       gradientUnits="userSpaceOnUse"
       id="linearGradient2973"
       xlink:href="#linearGradient2951"
       inkscape:collect="always" />
    <linearGradient
       y2="125.82186"
       x2="171.42857"
       y1="122.6041"
       x1="27.14286"
       gradientUnits="userSpaceOnUse"
       id="linearGradient2971"
       xlink:href="#linearGradient2959"
       inkscape:collect="always" />
    <linearGradient
       y2="125.82186"
       x2="171.42857"
       y1="122.6041"
       x1="27.14286"
       gradientUnits="userSpaceOnUse"
       id="linearGradient2965"
       xlink:href="#linearGradient2959"
       inkscape:collect="always" />
    <linearGradient
       y2="150.75945"
       x2="131.42856"
       y1="62.271225"
       x1="52.857136"
       gradientUnits="userSpaceOnUse"
       id="linearGradient2949"
       xlink:href="#linearGradient2951"
       inkscape:collect="always" />
    <linearGradient
       y2="125.82186"
       x2="171.42857"
       y1="122.6041"
       x1="27.14286"
       gradientUnits="userSpaceOnUse"
       id="linearGradient2947"
       xlink:href="#linearGradient2917"
       inkscape:collect="always" />
    <linearGradient
       gradientUnits="userSpaceOnUse"
       y2="150.75945"
       x2="131.42856"
       y1="62.271225"
       x1="52.857136"
       id="linearGradient2931"
       xlink:href="#linearGradient2925"
       inkscape:collect="always" />
    <linearGradient
       gradientUnits="userSpaceOnUse"
       y2="125.82186"
       x2="171.42857"
       y1="122.6041"
       x1="27.14286"
       id="linearGradient2923"
       xlink:href="#linearGradient2917"
       inkscape:collect="always" />
    <linearGradient
       id="linearGradient1977">
      <stop
         id="stop1979"
         offset="0"
         style="stop-color: rgb(239, 239, 189); stop-opacity: 1;" />
      <stop
         id="stop1981"
         offset="1"
         style="stop-color: rgb(210, 197, 149); stop-opacity: 1;" />
    </linearGradient>
    <linearGradient
       id="linearGradient2917">
      <stop
         id="stop2919"
         offset="0"
         style="stop-color: rgb(212, 0, 0); stop-opacity: 1;" />
      <stop
         id="stop2921"
         offset="1"
         style="stop-color: rgb(87, 0, 0); stop-opacity: 1;" />
    </linearGradient>
    <linearGradient
       id="linearGradient2925">
      <stop
         id="stop2927"
         offset="0"
         style="stop-color: rgb(250, 47, 82); stop-opacity: 1;" />
      <stop
         id="stop2929"
         offset="1"
         style="stop-color: rgb(245, 125, 90); stop-opacity: 1;" />
    </linearGradient>
    <linearGradient
       id="linearGradient2951">
      <stop
         style="stop-color: rgb(74, 175, 255); stop-opacity: 1;"
         offset="0"
         id="stop2953" />
      <stop
         style="stop-color: rgb(127, 229, 229); stop-opacity: 1;"
         offset="1"
         id="stop2955" />
    </linearGradient>
    <linearGradient
       id="linearGradient2959">
      <stop
         style="stop-color: rgb(85, 0, 175); stop-opacity: 1;"
         offset="0"
         id="stop2961" />
      <stop
         style="stop-color: rgb(0, 0, 82); stop-opacity: 1;"
         offset="1"
         id="stop2963" />
    </linearGradient>
    <linearGradient
       id="linearGradient3025">
      <stop
         id="stop3027"
         offset="0"
         style="stop-color: rgb(74, 175, 109); stop-opacity: 1;" />
      <stop
         id="stop3029"
         offset="1"
         style="stop-color: rgb(106, 242, 151); stop-opacity: 1;" />
    </linearGradient>
    <linearGradient
       id="linearGradient3033">
      <stop
         id="stop3035"
         offset="0"
         style="stop-color: rgb(85, 117, 103); stop-opacity: 1;" />
      <stop
         id="stop3037"
         offset="1"
         style="stop-color: rgb(0, 45, 23); stop-opacity: 1;" />
    </linearGradient>
    <linearGradient
       id="linearGradient3446">
      <stop
         id="stop3448"
         offset="0"
         style="stop-color: rgb(244, 227, 202); stop-opacity: 1;" />
      <stop
         id="stop3450"
         offset="1"
         style="stop-color: rgb(233, 204, 157); stop-opacity: 1;" />
    </linearGradient>
    <linearGradient
       id="linearGradient3525">
      <stop
         id="stop3527"
         offset="0"
         style="stop-color: rgb(0, 0, 102); stop-opacity: 1;" />
      <stop
         id="stop3529"
         offset="1"
         style="stop-color: rgb(0, 0, 79); stop-opacity: 1;" />
    </linearGradient>
    <inkscape:perspective
       id="perspective2613"
       inkscape:persp3d-origin="195.5 : 157.95238 : 1"
       inkscape:vp_z="391 : 236.92857 : 1"
       inkscape:vp_y="0 : 1000 : 0"
       inkscape:vp_x="0 : 236.92857 : 1"
       sodipodi:type="inkscape:persp3d" />
  </defs>
  <sodipodi:namedview
     id="base"
     pagecolor="#ffffff"
     bordercolor="#666666"
     borderopacity="1.0"
     inkscape:pageopacity="0.0"
     inkscape:pageshadow="2"
     inkscape:zoom="0.58283278"
     inkscape:cx="178.86974"
     inkscape:cy="494.03169"
     inkscape:document-units="px"
     inkscape:current-layer="layer1"
     showgrid="false"
     showguides="true"
     inkscape:guide-bbox="true"
     inkscape:window-width="1395"
     inkscape:window-height="835"
     inkscape:window-x="0"
     inkscape:window-y="22"
     inkscape:window-maximized="0">
    <sodipodi:guide
       orientation="0,1"
       position="366.39368,693.96419"
       id="guide3691" />
    <sodipodi:guide
       orientation="1,0"
       position="366.39368,693.96419"
       id="guide3693" />
  </sodipodi:namedview>
  <metadata
     id="metadata7">
    <rdf:RDF>
      <cc:Work
         rdf:about="">
        <dc:format>image/svg+xml</dc:format>
        <dc:type
           rdf:resource="http://purl.org/dc/dcmitype/StillImage" />
      </cc:Work>
    </rdf:RDF>
  </metadata>
  <g
     inkscape:label="Capa 1"
     inkscape:groupmode="layer"
     id="layer1"
     transform="translate(-972.98359,-178.07811)">
    <path
       style="fill:#003366"
       d="m 1211.9468,1049.5791 c -0.4708,-1.2375 -3.5599,-8.325 -6.8647,-15.75 -3.3047,-7.425 -11.2921,-25.65 -17.7498,-40.49997 -6.4577,-14.85 -15.6678,-36 -20.467,-47 -47.2832,-108.37542 -62.6324,-143.59299 -98.282,-225.49999 -11.8495,-27.22501 -29.0555,-66.60001 -38.2354,-87.5 -9.18,-20.9 -16.9123,-38.9489 -17.1828,-40.10866 -0.6137,-2.63032 -0.7651,-2.57308 18.0097,-6.80668 148.8896,-33.57372 275.2124,-29.3557 357.6775,11.94314 13.0374,6.5292 27.9074,15.81795 34.2814,21.41447 2.0482,1.7983 4.32,3.04091 5.0485,2.76137 0.7284,-0.27954 3.0586,-4.48972 5.1782,-9.35594 6.0838,-13.96776 22.4765,-45.61882 30.9962,-59.8477 26.6585,-44.52285 56.9375,-80.11386 88.9957,-104.60886 23.0557,-17.61639 51.2117,-31.60619 77,-38.2587 7.9347,-2.04691 27.9944,-4.63244 35.9404,-4.63244 8.5286,0 9.9514,1.35956 11.5123,11 2.4413,15.07908 8.0954,37.4678 16.6678,66 7.0882,23.59215 27.8919,83.64592 39.6648,114.5 12.5198,32.81122 16.0484,41.87662 25.8845,66.5 10.5803,26.48623 12.9914,32.38675 25.3349,62 3.0949,7.42499 8.0944,18.22499 11.11,23.99999 16.684,31.95115 31.9249,67.04911 34.8767,80.31697 2.3797,10.69612 1.8173,12.29863 -4.7428,13.51498 -68.8122,12.75905 -121.7458,27.62304 -200.7486,56.37121 -21.3819,7.78059 -49.1544,18.74219 -50.7478,20.02972 -0.9582,0.77432 -0.5426,1.81133 1.7914,4.46961 6.0024,6.83631 0.8697,12.16401 -20.0587,20.82114 -46.6769,19.308 -72.9849,21.331 -72.9849,5.61231 0,-2.20985 -0.401,-4.26575 -0.8912,-4.56866 -2.2708,-1.40343 -53.7431,14.88117 -90.6088,28.66644 -49.1807,18.39023 -91.5706,36.43925 -151.862,64.66065 -14.2241,6.6581 -26.2728,12.1056 -26.7748,12.1056 -0.502,0 -1.2979,-1.0125 -1.7687,-2.25 z m 11.9324,-25.9069 c 9.3025,-7.0656 32.8121,-22.221 46.9731,-30.28123 45.4722,-25.88201 94.1408,-44.57519 140.742,-54.05776 30.4436,-6.19477 38.2225,-6.91462 75.7742,-7.012 l 34.0162,-0.0882 5.9838,-4.88306 5.9838,-4.88304 0.3164,2.68111 c 0.174,1.47462 0.5872,2.68111 0.9183,2.68111 0.331,0 8.0636,-4.8948 17.1835,-10.87733 60.2255,-39.50682 126.27,-67.53076 185.0818,-78.53363 20.8348,-3.89792 28.7836,-4.72669 52.1485,-5.43716 19.3212,-0.5875 21.8745,-0.86273 23.75,-2.56007 4.3423,-3.92969 9.1473,9.12624 -64.4573,-175.14142 -16.7077,-41.82729 -31.491,-78.50229 -32.8518,-81.5 -7.4979,-16.51689 1.458,9.1501 27.4082,78.54962 6.1366,16.41111 15.9886,43.13705 20.3737,55.26813 0.7419,2.05253 3.4861,9.35687 6.0981,16.23187 2.6121,6.875 5.1356,13.85 5.6077,15.49999 0.7958,2.78099 0.7513,2.85829 -0.6094,1.05888 -0.8072,-1.06763 -1.4677,-2.30325 -1.4677,-2.74585 0,-0.44258 -4.7696,-12.84408 -10.599,-27.55886 -5.8294,-14.7148 -12.9801,-32.82917 -15.8903,-40.25416 -37.0182,-94.44542 -72.5845,-180.25963 -74.0869,-178.75713 -0.4393,0.43931 4.1411,12.53762 20.3523,53.75713 6.5975,16.77499 19.0554,48.5 27.6842,70.5 8.6289,22 17.7274,45.175 20.2189,51.5 27.297,69.29471 51.3208,133.08744 51.3208,136.277 0,2.40027 -0.1852,2.44947 -13.75,3.65292 -49.281,4.37216 -108.791,20.79996 -149.967,41.39855 -28.3381,14.17632 -49.5361,28.22449 -70.2938,46.58437 -5.6648,5.0105 -10.488,8.92168 -10.7182,8.69152 -1.7305,-1.73048 11.2236,-17.99488 24.4182,-30.65816 27.551,-26.44152 62.8739,-45.8501 106.2283,-58.36843 15.4255,-4.45403 23.5583,-6.26342 45.0825,-10.02996 9.3533,-1.63675 27.2268,-3.557 43.344,-4.65671 12.5813,-0.85844 17.9879,-1.5925 18.3319,-2.48897 0.5703,-1.48627 -1.0537,-5.61854 -31.0084,-78.90213 -8.9957,-22.00767 -18.9933,-46.50538 -28.014,-68.64437 -4.1782,-10.2544 -9.7875,-23.7544 -12.4651,-30 -2.6776,-6.24559 -5.8257,-13.60563 -6.9958,-16.35563 -4.0155,-9.43753 -2.1477,-2.99282 3.188,11 11.0911,29.08611 26.8424,70.0904 38.6057,100.5 15.5669,40.24228 26.0137,68.56407 26.0137,70.52479 0,1.92494 1.2511,1.62316 -22.5,5.42693 -32.4723,5.20046 -69.7913,15.28503 -99,26.75242 -56.7935,22.29716 -96.9747,53.06401 -121.0147,92.66121 -2.5493,4.19905 -5.0191,7.63464 -5.4884,7.63464 -0.4693,0 -1.7461,-2.3625 -2.8374,-5.25 -1.0913,-2.8875 -7.7023,-19.65 -14.6912,-37.25 -12.4835,-31.43715 -16.2337,-41.03227 -26.9683,-69 -2.9554,-7.7 -7.9076,-20.525 -11.005,-28.5 -3.0974,-7.975 -8.7862,-23.04999 -12.6418,-33.5 -3.8555,-10.44999 -7.4248,-19.42749 -7.9317,-19.94999 -1.6173,-1.66721 -1.0233,4.96867 1.4945,16.69631 2.4421,11.37501 4.1917,16.9042 13.3703,42.25368 2.7881,7.70001 7.613,21.425 10.722,30.5 6.4812,18.91781 12.006,34.88259 23.4226,67.68245 7.4445,21.38795 8.8669,26.31755 7.5937,26.31755 -0.2615,0 -4.6532,-2.23224 -9.7593,-4.96052 -42.2747,-22.58793 -105.786,-30.38803 -171.6641,-21.08283 -24.0308,3.39432 -56.8566,10.59744 -76.7585,16.84351 -3.3866,1.06284 -6.6109,1.65213 -7.1652,1.30955 -0.5544,-0.3426 -4.5842,-8.49492 -8.9551,-18.1163 -48.5576,-106.88425 -96.3396,-207.228 -113.3231,-237.98232 -11.0101,-19.93762 -5.1859,-5.56514 15.4462,38.1166 32.6601,69.14715 41.497,88.22721 60.8447,131.37231 14.6796,32.73524 30.5412,70.64151 36.3401,86.84626 1.5443,4.31544 3.4381,8.08812 4.2085,8.38374 0.7703,0.29562 5.3067,-0.63301 10.0809,-2.06361 19.885,-5.95865 52.3355,-13.02781 71.6803,-15.61515 42.2334,-5.64863 85.6232,-5.48068 120.0059,0.46451 21.9443,3.79443 50.249,12.06263 48.2246,14.08706 -0.2504,0.25043 -8.2798,-0.64758 -17.8429,-1.99559 -31.0313,-4.37408 -41.8806,-5.0998 -74.3876,-4.97577 -25.2207,0.0962 -34.2626,0.52249 -48.5,2.28637 -43.524,5.39218 -79.9363,16.53521 -107.8886,33.01646 -6.2118,3.66264 -8.736,3.87613 -9.6447,0.81572 -1.1563,-3.89405 -30.0927,-73.74442 -45.6724,-110.25 -19.4318,-45.5314 -35.1773,-81.12807 -47.7717,-107.99999 -2.8355,-6.05 -7.4626,-15.95 -10.2825,-22 -14.3229,-30.72984 -38.935,-76.63848 -40.3357,-75.23775 -0.5904,0.59042 3.2309,9.39863 21.3613,49.23775 52.2867,114.89331 100.9106,225.39893 114.6233,260.49999 3.1156,7.975 6.3378,15.99925 7.1606,17.83168 l 1.4959,3.33167 4.2411,-2.48543 c 9.973,-5.84457 31.1309,-15.73401 42.7134,-19.96471 27.9682,-10.2159 52.6169,-15.94859 85.5,-19.88526 16.8794,-2.02075 69.1188,-1.68998 88,0.5572 16.5446,1.9691 41.603,6.32116 42.7003,7.41605 0.3852,0.38435 -15.5898,0.6988 -35.5,0.6988 -38.3531,0 -51.2628,0.83604 -79.2003,5.12906 -35.1914,5.40767 -64.3373,13.27841 -98,26.4645 -15.2929,5.99039 -41.5846,18.40964 -49.3464,23.30946 -2.3657,1.49337 -4.9704,2.57612 -5.7884,2.4061 -0.9241,-0.19207 -6.3359,-12.42651 -14.2918,-32.30912 -7.0425,-17.6 -15.8381,-39.2 -19.5458,-48 -3.7077,-8.79999 -9.1131,-21.625 -12.012,-28.5 -27.2066,-64.52221 -62.2216,-138.86866 -89.0097,-188.99183 -9.6775,-18.10754 -20.5025,-36.20684 -20.5046,-34.28346 -0,1.05864 11.9478,26.70584 32.5082,69.7753 26.8685,56.28386 66.9728,144.15068 84.1468,184.36222 17.5037,40.98341 33.3167,83.38213 33.359,89.44389 0.035,5.05861 1.3187,5.04876 10.0866,-0.0774 41.6877,-24.37309 90.0722,-43.25097 133.8251,-52.21377 24.6399,-5.04748 58.073,-8.59987 58.073,-6.17046 0,0.61458 -1.2375,1.40749 -2.75,1.76203 -72.3913,16.96898 -144.5891,46.72619 -189.3812,78.05586 -4.1972,2.9357 -7.9345,5.3376 -8.3051,5.3376 -0.7444,0 -2.0409,-2.8129 -14.0572,-30.49997 -31.2211,-71.93712 -85.0595,-192.82042 -98.2051,-220.5 -2.4815,-5.225 -6.215,-13.32499 -8.2968,-18 -2.0818,-4.67499 -8.1598,-17.49999 -13.5066,-28.49999 -5.3469,-11 -11.3044,-23.375 -13.2391,-27.5 -6.0296,-12.85611 -4.6371,-6.05264 1.7579,8.58878 3.3419,7.65118 6.9232,15.71122 7.9585,17.91122 1.0353,2.2 3.6572,8.05 5.8265,13 6.0679,13.84661 23.898,53.99015 28.2039,63.49999 3.9004,8.61418 17.8353,40.39262 43.1922,98.5 26.9454,61.74725 50.7487,119.07457 54.8088,131.99997 1.5646,4.9809 2.8428,7.5 3.8054,7.5 0.4079,0 3.2046,-1.8706 6.2148,-4.1569 z m 331.9007,-118.7079 c 1.7998,-3.36294 19.0315,-18.68356 30.7937,-27.37848 41.8624,-30.94593 95.397,-51.59164 153.3773,-59.15025 10.6548,-1.38901 37.1879,-3.33678 52.8763,-3.88158 5.6975,-0.19787 6.616,-0.50898 7.6504,-2.59164 l 1.1755,-2.36677 1.5206,2.36677 c 2.1619,3.36501 2.4195,5.97667 0.6786,6.87862 -0.825,0.42742 -8.25,1.75674 -16.5,2.95401 -73.3427,10.64391 -154.1292,38.6039 -212.5,73.54569 -7.975,4.77398 -15.768,9.33917 -17.3177,10.14487 -2.6984,1.40293 -2.7727,1.38088 -1.7547,-0.52124 z M 1447.6462,619.57914 c 1.0658,-2.8875 2.5083,-7.05 3.2057,-9.25 7.7711,-24.51569 26.34,-61.53773 41.4055,-82.55275 6.3596,-8.87115 19.1764,-23.38751 25.8595,-29.28866 3.4254,-3.0246 5.968,-5.75925 5.6503,-6.07702 -1.2204,-1.2204 -10.8323,6.21997 -20.4899,15.8609 -16.1267,16.09887 -28.5509,33.84274 -40.69,58.11245 -7.1049,14.20473 -16.6377,37.45962 -19.3035,47.09009 -2.9842,10.78042 0.7224,15.96752 4.3624,6.10499 z m -68.7939,-5.38198 c 0,-1.70162 -4.5253,-7.61446 -7.8081,-10.20214 -11.8947,-9.37625 -43.9914,-20.16542 -73.1919,-24.60316 -37.7402,-5.73556 -90.3668,-6.29428 -135.75,-1.44123 -6.1875,0.66166 -11.25,1.54469 -11.25,1.96231 0,0.4176 12.7125,0.5136 28.25,0.21332 52.3811,-1.0123 103.1379,3.13738 138.75,11.3437 20.7096,4.77225 44.1843,13.7042 54.3895,20.69482 3.6836,2.52329 6.6105,3.42314 6.6105,2.03238 z m 332.0527,-51.72933 c -1.4005,-3.68367 -2.1855,-3.31797 -0.8851,0.41235 0.585,1.67807 1.2492,2.86548 1.476,2.63869 0.2268,-0.22679 -0.039,-1.59976 -0.5909,-3.05104 z"
       id="path2989" />
    <text
       xml:space="preserve"
       style="font-size:40px;font-style:normal;font-weight:normal;fill:#000000;fill-opacity:1;stroke:none;stroke-width:1px;stroke-linecap:butt;stroke-linejoin:miter;stroke-opacity:1;font-family:Bitstream Vera Sans"
       x="52.527931"
       y="710.64978"
       id="text2381"
       transform="translate(1015.41,206.86)"><tspan
         sodipodi:role="line"
         id="tspan2383"
         x="52.527931"
         y="710.64978" /></text>
    <path
       id="path2883"
       d="m 1211.9468,1049.5791 c -0.4708,-1.2375 -3.5599,-8.325 -6.8647,-15.75 -3.3047,-7.425 -11.2921,-25.65 -17.7498,-40.49997 -6.4577,-14.85 -15.6678,-36 -20.467,-47 -47.2832,-108.37542 -62.6324,-143.59299 -98.282,-225.49999 -11.8495,-27.22501 -29.0555,-66.60001 -38.2354,-87.5 -9.18,-20.9 -16.9123,-38.9489 -17.1828,-40.10866 -0.6137,-2.63032 -0.7651,-2.57308 18.0097,-6.80668 148.8896,-33.57372 275.2124,-29.3557 357.6775,11.94314 13.0374,6.5292 21.9654,25.81303 27.0021,18.98802 3.3095,-4.48464 -12.2146,-44.82537 -26.3771,-84.28151 -5.5345,-15.41881 -16.9464,-45.65571 -27.9993,-71.21386 -11.8805,-27.47171 -27.4042,-50.93953 -24.8942,-49.20458 5.7038,3.94262 18.2127,15.85023 27.9791,35.0255 14.1683,27.81791 30.1615,67.45406 34.9239,79.93123 10.3694,27.16744 28.2024,70.83264 35.6934,80.7222 9.1991,12.14446 20.6567,-40.76592 29.1764,-54.9948 26.6585,-44.52285 56.9375,-80.11386 88.9957,-104.60886 23.0557,-17.61639 51.2117,-31.60619 77,-38.2587 7.9347,-2.04691 27.9944,-4.63244 35.9404,-4.63244 8.5286,0 9.9514,1.35956 11.5123,11 2.4413,15.07908 8.0954,37.4678 16.6678,66 7.0882,23.59215 27.8919,83.64592 39.6648,114.5 12.5198,32.81122 16.0484,41.87662 25.8845,66.5 10.5803,26.48623 12.9914,32.38675 25.3349,62 3.0949,7.42499 8.0944,18.22499 11.11,23.99999 16.684,31.95115 31.9249,67.04911 34.8767,80.31697 2.3797,10.69612 1.8173,12.29863 -4.7428,13.51498 -68.8122,12.75905 -121.7458,27.62304 -200.7486,56.37121 -21.3819,7.78059 -49.1544,18.74219 -50.7478,20.02972 -0.9582,0.77432 -0.5426,1.81133 1.7914,4.46961 6.0024,6.83631 0.8697,12.16401 -20.0587,20.82114 -46.6769,19.308 -72.9849,21.331 -72.9849,5.61231 0,-2.20985 -0.401,-4.26575 -0.8912,-4.56866 -2.2708,-1.40343 -53.7431,14.88117 -90.6088,28.66644 -49.1807,18.39023 -91.5706,36.43925 -151.862,64.66065 -14.2241,6.6581 -26.2728,12.1056 -26.7748,12.1056 -0.502,0 -1.2979,-1.0125 -1.7687,-2.25 z m 11.9324,-25.9069 c 9.3025,-7.0656 32.8121,-22.221 46.9731,-30.28123 45.4722,-25.88201 94.1408,-44.57519 140.742,-54.05776 30.4436,-6.19477 38.2225,-6.91462 75.7742,-7.012 l 34.0162,-0.0882 5.9838,-4.88306 5.9838,-4.88304 0.3164,2.68111 c 0.174,1.47462 0.5872,2.68111 0.9183,2.68111 0.331,0 8.0636,-4.8948 17.1835,-10.87733 60.2255,-39.50682 126.27,-67.53076 185.0818,-78.53363 20.8348,-3.89792 28.7836,-4.72669 52.1485,-5.43716 19.3212,-0.5875 21.8745,-0.86273 23.75,-2.56007 4.3423,-3.92969 9.1473,9.12624 -64.4573,-175.14142 -16.7077,-41.82729 -31.491,-78.50229 -32.8518,-81.5 -7.4979,-16.51689 1.458,9.1501 27.4082,78.54962 6.1366,16.41111 15.9886,43.13705 20.3737,55.26813 0.7419,2.05253 3.4861,9.35687 6.0981,16.23187 2.6121,6.875 5.1356,13.85 5.6077,15.49999 0.7958,2.78099 0.7513,2.85829 -0.6094,1.05888 -0.8072,-1.06763 -1.4677,-2.30325 -1.4677,-2.74585 0,-0.44258 -4.7696,-12.84408 -10.599,-27.55886 -5.8294,-14.7148 -12.9801,-32.82917 -15.8903,-40.25416 -37.0182,-94.44542 -72.5845,-180.25963 -74.0869,-178.75713 -0.4393,0.43931 4.1411,12.53762 20.3523,53.75713 6.5975,16.77499 19.0554,48.5 27.6842,70.5 8.6289,22 17.7274,45.175 20.2189,51.5 27.297,69.29471 51.3208,133.08744 51.3208,136.277 0,2.40027 -0.1852,2.44947 -13.75,3.65292 -49.281,4.37216 -108.791,20.79996 -149.967,41.39855 -28.3381,14.17632 -49.5361,28.22449 -70.2938,46.58437 -5.6648,5.0105 -10.488,8.92168 -10.7182,8.69152 -1.7305,-1.73048 11.2236,-17.99488 24.4182,-30.65816 27.551,-26.44152 62.8739,-45.8501 106.2283,-58.36843 15.4255,-4.45403 23.5583,-6.26342 45.0825,-10.02996 9.3533,-1.63675 27.2268,-3.557 43.344,-4.65671 12.5813,-0.85844 17.9879,-1.5925 18.3319,-2.48897 0.5703,-1.48627 -1.0537,-5.61854 -31.0084,-78.90213 -8.9957,-22.00767 -18.9933,-46.50538 -28.014,-68.64437 -4.1782,-10.2544 -9.7875,-23.7544 -12.4651,-30 -2.6776,-6.24559 -5.8257,-13.60563 -6.9958,-16.35563 -4.0155,-9.43753 -2.1477,-2.99282 3.188,11 11.0911,29.08611 26.8424,70.0904 38.6057,100.5 15.5669,40.24228 26.0137,68.56407 26.0137,70.52479 0,1.92494 1.2511,1.62316 -22.5,5.42693 -32.4723,5.20046 -69.7913,15.28503 -99,26.75242 -56.7935,22.29716 -96.9747,53.06401 -121.0147,92.66121 -2.5493,4.19905 -5.0191,7.63464 -5.4884,7.63464 -0.4693,0 -1.7461,-2.3625 -2.8374,-5.25 -1.0913,-2.8875 -7.7023,-19.65 -14.6912,-37.25 -12.4835,-31.43715 -16.2337,-41.03227 -26.9683,-69 -2.9554,-7.7 -7.9076,-20.525 -11.005,-28.5 -3.0974,-7.975 -8.7862,-23.04999 -12.6418,-33.5 -3.8555,-10.44999 -7.4248,-19.42749 -7.9317,-19.94999 -1.6173,-1.66721 -1.0233,4.96867 1.4945,16.69631 2.4421,11.37501 4.1917,16.9042 13.3703,42.25368 2.7881,7.70001 7.613,21.425 10.722,30.5 6.4812,18.91781 12.006,34.88259 23.4226,67.68245 7.4445,21.38795 8.8669,26.31755 7.5937,26.31755 -0.2615,0 -4.6532,-2.23224 -9.7593,-4.96052 -42.2747,-22.58793 -105.786,-30.38803 -171.6641,-21.08283 -24.0308,3.39432 -56.8566,10.59744 -76.7585,16.84351 -3.3866,1.06284 -6.6109,1.65213 -7.1652,1.30955 -0.5544,-0.3426 -4.5842,-8.49492 -8.9551,-18.1163 -48.5576,-106.88425 -96.3396,-207.228 -113.3231,-237.98232 -11.0101,-19.93762 -5.1859,-5.56514 15.4462,38.1166 32.6601,69.14715 41.497,88.22721 60.8447,131.37231 14.6796,32.73524 30.5412,70.64151 36.3401,86.84626 1.5443,4.31544 3.4381,8.08812 4.2085,8.38374 0.7703,0.29562 5.3067,-0.63301 10.0809,-2.06361 19.885,-5.95865 52.3355,-13.02781 71.6803,-15.61515 42.2334,-5.64863 85.6232,-5.48068 120.0059,0.46451 21.9443,3.79443 50.249,12.06263 48.2246,14.08706 -0.2504,0.25043 -8.2798,-0.64758 -17.8429,-1.99559 -31.0313,-4.37408 -41.8806,-5.0998 -74.3876,-4.97577 -25.2207,0.0962 -34.2626,0.52249 -48.5,2.28637 -43.524,5.39218 -79.9363,16.53521 -107.8886,33.01646 -6.2118,3.66264 -8.736,3.87613 -9.6447,0.81572 -1.1563,-3.89405 -30.0927,-73.74442 -45.6724,-110.25 -19.4318,-45.5314 -35.1773,-81.12807 -47.7717,-107.99999 -2.8355,-6.05 -7.4626,-15.95 -10.2825,-22 -14.3229,-30.72984 -38.935,-76.63848 -40.3357,-75.23775 -0.5904,0.59042 3.2309,9.39863 21.3613,49.23775 52.2867,114.89331 100.9106,225.39893 114.6233,260.49999 3.1156,7.975 6.3378,15.99925 7.1606,17.83168 l 1.4959,3.33167 4.2411,-2.48543 c 9.973,-5.84457 31.1309,-15.73401 42.7134,-19.96471 27.9682,-10.2159 52.6169,-15.94859 85.5,-19.88526 16.8794,-2.02075 69.1188,-1.68998 88,0.5572 16.5446,1.9691 41.603,6.32116 42.7003,7.41605 0.3852,0.38435 -15.5898,0.6988 -35.5,0.6988 -38.3531,0 -51.2628,0.83604 -79.2003,5.12906 -35.1914,5.40767 -64.3373,13.27841 -98,26.4645 -15.2929,5.99039 -41.5846,18.40964 -49.3464,23.30946 -2.3657,1.49337 -4.9704,2.57612 -5.7884,2.4061 -0.9241,-0.19207 -6.3359,-12.42651 -14.2918,-32.30912 -7.0425,-17.6 -15.8381,-39.2 -19.5458,-48 -3.7077,-8.79999 -9.1131,-21.625 -12.012,-28.5 -27.2066,-64.52221 -62.2216,-138.86866 -89.0097,-188.99183 -9.6775,-18.10754 -20.5025,-36.20684 -20.5046,-34.28346 0,1.05864 11.9478,26.70584 32.5082,69.7753 26.8685,56.28386 66.9728,144.15068 84.1468,184.36222 17.5037,40.98341 33.3167,83.38213 33.359,89.44389 0.035,5.05861 1.3187,5.04876 10.0866,-0.0774 41.6877,-24.37309 90.0722,-43.25097 133.8251,-52.21377 24.6399,-5.04748 58.073,-8.59987 58.073,-6.17046 0,0.61458 -1.2375,1.40749 -2.75,1.76203 -72.3913,16.96898 -144.5891,46.72619 -189.3812,78.05585 -4.1972,2.9357 -7.9345,5.3376 -8.3051,5.3376 -0.7444,0 -2.0409,-2.8129 -14.0572,-30.49996 -31.2211,-71.93712 -85.0595,-192.82042 -98.2051,-220.5 -2.4815,-5.225 -6.215,-13.32499 -8.2968,-18 -2.0818,-4.67499 -8.1598,-17.49999 -13.5066,-28.49999 -5.3469,-11 -11.3044,-23.375 -13.2391,-27.5 -6.0296,-12.85611 -4.6371,-6.05264 1.7579,8.58878 3.3419,7.65118 6.9232,15.71122 7.9585,17.91122 1.0353,2.2 3.6572,8.05 5.8265,13 6.0679,13.84661 23.898,53.99015 28.2039,63.49999 3.9004,8.61418 17.8353,40.39262 43.1922,98.5 26.9454,61.74725 50.7487,119.07456 54.8088,131.99996 1.5646,4.9809 2.8428,7.5 3.8054,7.5 0.4079,0 3.2046,-1.8706 6.2148,-4.1569 l 0,0 z m 331.9007,-118.7079 c 1.7998,-3.36294 19.0315,-18.68356 30.7937,-27.37848 41.8624,-30.94593 95.397,-51.59164 153.3773,-59.15025 10.6548,-1.38901 37.1879,-3.33678 52.8763,-3.88158 5.6975,-0.19787 6.616,-0.50898 7.6504,-2.59164 l 1.1755,-2.36677 1.5206,2.36677 c 2.1619,3.36501 2.4195,5.97667 0.6786,6.87862 -0.825,0.42742 -8.25,1.75674 -16.5,2.95401 -73.3427,10.64391 -154.1292,38.6039 -212.5,73.54569 -7.975,4.77398 -15.768,9.33917 -17.3177,10.14487 -2.6984,1.40293 -2.7727,1.38088 -1.7547,-0.52124 z M 1447.6462,619.57914 c 1.0658,-2.8875 2.5083,-7.05 3.2057,-9.25 7.7711,-24.51569 26.34,-61.53773 41.4055,-82.55275 6.3596,-8.87115 19.1764,-23.38751 25.8595,-29.28866 3.4254,-3.0246 5.968,-5.75925 5.6503,-6.07702 -1.2204,-1.2204 -10.8323,6.21997 -20.4899,15.8609 -16.1267,16.09887 -28.5509,33.84274 -40.69,58.11245 -7.1049,14.20473 -16.6377,37.45962 -19.3035,47.09009 -2.9842,10.78042 0.7224,15.96752 4.3624,6.10499 z m -68.7939,-5.38198 c 0,-1.70162 -4.5253,-7.61446 -7.8081,-10.20214 -11.8947,-9.37625 -43.9914,-20.16542 -73.1919,-24.60316 -37.7402,-5.73556 -90.3668,-6.29428 -135.75,-1.44123 -6.1875,0.66166 -11.25,1.54469 -11.25,1.96231 0,0.4176 12.7125,0.5136 28.25,0.21332 52.3811,-1.0123 103.1379,3.13738 138.75,11.3437 20.7096,4.77225 44.1843,13.7042 54.3895,20.69482 3.6836,2.52329 6.6105,3.42314 6.6105,2.03238 z m 332.0527,-51.72933 c -1.4005,-3.68367 -2.1855,-3.31797 -0.8851,0.41235 0.585,1.67807 1.2492,2.86548 1.476,2.63869 0.2268,-0.22679 -0.039,-1.59976 -0.5909,-3.05104 z"
       style="fill:#003366;fill-opacity:1"
       sodipodi:nodetypes="cssssssssssssssssssssssssssssssssssssccsscccccssssssssssssssssssssssssssssssssssssssssssssssssssssssscsssssssssssssssssssscccssssssssssssssssssssssssssssssssssscccssscccssssccsssssssccsssssssccssc" />
    <path
       sodipodi:type="arc"
       style="fill:#003366;fill-opacity:1;stroke:none"
       id="path3657"
       sodipodi:cx="370.94327"
       sodipodi:cy="243.66829"
       sodipodi:rx="14.255383"
       sodipodi:ry="12.738853"
       d="m 385.19865,243.66829 a 14.255383,12.738853 0 1 1 -28.51076,0 14.255383,12.738853 0 1 1 28.51076,0 z"
       transform="matrix(2.1434068,0,0,2.2795265,544.55515,-143.13859)" />
    <path
       sodipodi:type="arc"
       style="fill:none;stroke:#003366;stroke-width:15;stroke-linecap:round;stroke-miterlimit:4;stroke-opacity:1;stroke-dasharray:none;stroke-dashoffset:0"
       id="path3695"
       sodipodi:cx="366.39368"
       sodipodi:cy="233.35588"
       sodipodi:rx="78.126907"
       sodipodi:ry="78.126907"
       d="M 288.26761,233.71814 A 78.126907,78.126907 0 0 1 425.33297,182.07262"
       transform="translate(972.98359,178.07811)"
       sodipodi:start="3.1369558"
       sodipodi:end="5.5671355"
       sodipodi:open="true" />
    <path
       sodipodi:type="arc"
       style="fill:none;stroke:#003366;stroke-width:15;stroke-linecap:round;stroke-miterlimit:4;stroke-opacity:1;stroke-dasharray:none;stroke-dashoffset:0"
       id="path3697"
       sodipodi:cx="366.39368"
       sodipodi:cy="233.35588"
       sodipodi:rx="119.3051"
       sodipodi:ry="119.3051"
       d="M 247.08986,233.90908 A 119.3051,119.3051 0 0 1 456.39799,155.04285"
       transform="translate(972.98359,178.07811)"
       sodipodi:start="3.1369558"
       sodipodi:end="5.5671355"
       sodipodi:open="true" />
    <path
       sodipodi:type="arc"
       style="fill:none;stroke:#003366;stroke-width:15;stroke-linecap:round;stroke-miterlimit:4;stroke-opacity:1;stroke-dasharray:none;stroke-dashoffset:0"
       id="path3699"
       sodipodi:cx="366.39368"
       sodipodi:cy="233.35588"
       sodipodi:rx="160.48329"
       sodipodi:ry="160.48329"
       d="M 205.91211,234.10002 A 160.48329,160.48329 0 0 1 487.463,128.01308"
       transform="translate(972.98359,178.07811)"
       sodipodi:start="3.1369558"
       sodipodi:end="5.5671355"
       sodipodi:open="true" />
  </g>
</svg>
